# xmcd
#
# Track frame offsets:
#	182
#	14300
#	33477
#	46857
#	64092
#	81927
#	100837
#	112972
#	169367
#
# Disc length: 2632 seconds
# Revision: 0
# Processed by: cddbd v1.5.2PL0 Copyright (c) Steve Scherf et al.
# Submitted via: dBpowerAMP V12.0
#
DISCID=6c0a4609
DTITLE=Boz Scaggs - Boz Scaggs
DYEAR=1969
DGENRE=Blues
TTITLE0=I'm Easy
TTITLE1=I'll Be Long Gone
TTITLE2=Another Day (Another Letter)
TTITLE3=Now You're Gone
TTITLE4=Finding Her
TTITLE5=Look What I Got!
TTITLE6=Waiting for a Train
TTITLE7=Loan Me a Dime
TTITLE8=Sweet Release
EXTD=
EXTT0=
EXTT1=
EXTT2=
EXTT3=
EXTT4=
EXTT5=
EXTT6=
EXTT7=
EXTT8=
PLAYORDER=
